<svg width="547" height="639" viewBox="0 0 547 639" fill="none" xmlns="http://www.w3.org/2000/svg">
<path fill-rule="evenodd" clip-rule="evenodd" d="M456.749 377.22C452.386 389.375 447.047 401.096 440.774 412.231C432.222 427.49 421.977 441.686 410.278 454.579C404.46 461.004 398.274 467.103 391.784 472.833C371.75 490.545 348.634 504.892 323.282 515.007C296.063 525.925 266.262 531.916 235.071 531.916C165.44 531.916 102.906 502.049 59.864 454.557C39.6128 432.222 23.7026 406.045 13.3925 377.199C4.73204 352.997 0.000244141 326.972 0.000244141 299.84C0.000244141 272.708 4.73204 246.683 13.3925 222.482C23.7026 193.657 39.6128 167.458 59.864 145.123C102.906 97.6314 165.44 67.7646 235.071 67.7646C266.262 67.7646 296.063 73.7554 323.282 84.6732C348.612 94.788 371.75 109.135 391.784 126.847C398.296 132.577 404.482 138.677 410.278 145.101C421.955 157.994 432.222 172.19 440.774 187.449C447.047 198.584 452.386 210.283 456.749 222.46H370.817C363.198 209.48 353.735 197.716 342.773 187.449C323.803 169.694 300.339 156.605 274.206 149.985H274.184C261.66 146.794 248.572 145.101 235.049 145.101C177.052 145.101 126.391 176.205 99.3029 222.46C85.9757 245.207 78.3354 271.645 78.3354 299.818C78.3354 327.992 85.9757 354.408 99.3029 377.177C126.391 423.41 177.052 454.535 235.049 454.535C248.572 454.535 261.66 452.842 274.184 449.652H274.206C300.318 443.031 323.781 429.921 342.773 412.188C353.713 401.943 363.198 390.157 370.817 377.177H456.749V377.22Z" fill="black"/>
<path d="M272.751 66.6144H194.394V638.142H272.751V66.6144Z" fill="black"/>
<path d="M547 184.778H468.643V532.848H547V184.778Z" fill="black"/>
<path d="M272.863 259.062V336.229H468.538V259.062H272.863Z" fill="black"/>
<path fill-rule="evenodd" clip-rule="evenodd" d="M546.999 0V154.695H499.812C485.291 132.686 467.774 112.391 447.74 94.2453C441.294 88.3631 434.565 82.7197 427.554 77.3367H237.219V76.2731H194.372V0H546.999Z" fill="black"/>
</svg>
