<svg width="482" height="118" viewBox="0 0 482 118" fill="none" xmlns="http://www.w3.org/2000/svg">
<line x1="122.5" x2="122.5" y2="105" stroke="white" stroke-width="3"/>
<path d="M158.181 70.48C156.021 70.48 154.008 70.1333 152.141 69.44C150.301 68.72 148.701 67.7067 147.341 66.4C145.981 65.0933 144.914 63.56 144.141 61.8C143.394 60.04 143.021 58.1067 143.021 56C143.021 53.8933 143.394 51.96 144.141 50.2C144.914 48.44 145.981 46.9067 147.341 45.6C148.728 44.2933 150.341 43.2933 152.181 42.6C154.021 41.88 156.034 41.52 158.221 41.52C160.648 41.52 162.834 41.9467 164.781 42.8C166.754 43.6267 168.408 44.8533 169.741 46.48L165.581 50.32C164.621 49.2267 163.554 48.4133 162.381 47.88C161.208 47.32 159.928 47.04 158.541 47.04C157.234 47.04 156.034 47.2533 154.941 47.68C153.848 48.1067 152.901 48.72 152.101 49.52C151.301 50.32 150.674 51.2667 150.221 52.36C149.794 53.4533 149.581 54.6667 149.581 56C149.581 57.3333 149.794 58.5467 150.221 59.64C150.674 60.7333 151.301 61.68 152.101 62.48C152.901 63.28 153.848 63.8933 154.941 64.32C156.034 64.7467 157.234 64.96 158.541 64.96C159.928 64.96 161.208 64.6933 162.381 64.16C163.554 63.6 164.621 62.76 165.581 61.64L169.741 65.48C168.408 67.1067 166.754 68.3467 164.781 69.2C162.834 70.0533 160.634 70.48 158.181 70.48ZM177.498 70V52.16L178.898 53.6H170.218V48.48H190.978V53.6H182.298L183.698 52.16V70H177.498ZM206.985 70.32C205.171 70.32 203.585 69.92 202.225 69.12C200.865 68.32 199.798 67.1067 199.025 65.48C198.278 63.8267 197.905 61.7467 197.905 59.24C197.905 56.7067 198.265 54.6267 198.985 53C199.705 51.3733 200.745 50.16 202.105 49.36C203.465 48.56 205.091 48.16 206.985 48.16C209.011 48.16 210.825 48.6267 212.425 49.56C214.051 50.4667 215.331 51.7467 216.265 53.4C217.225 55.0533 217.705 57 217.705 59.24C217.705 61.5067 217.225 63.4667 216.265 65.12C215.331 66.7733 214.051 68.0533 212.425 68.96C210.825 69.8667 209.011 70.32 206.985 70.32ZM194.265 77.76V48.48H200.225V52.88L200.105 59.28L200.505 65.64V77.76H194.265ZM205.905 65.2C206.945 65.2 207.865 64.96 208.665 64.48C209.491 64 210.145 63.32 210.625 62.44C211.131 61.5333 211.385 60.4667 211.385 59.24C211.385 57.9867 211.131 56.92 210.625 56.04C210.145 55.16 209.491 54.48 208.665 54C207.865 53.52 206.945 53.28 205.905 53.28C204.865 53.28 203.931 53.52 203.105 54C202.278 54.48 201.625 55.16 201.145 56.04C200.665 56.92 200.425 57.9867 200.425 59.24C200.425 60.4667 200.665 61.5333 201.145 62.44C201.625 63.32 202.278 64 203.105 64.48C203.931 64.96 204.865 65.2 205.905 65.2ZM232.158 70.32C229.865 70.32 227.825 69.84 226.038 68.88C224.278 67.92 222.878 66.6133 221.838 64.96C220.825 63.28 220.318 61.3733 220.318 59.24C220.318 57.08 220.825 55.1733 221.838 53.52C222.878 51.84 224.278 50.5333 226.038 49.6C227.825 48.64 229.865 48.16 232.158 48.16C234.425 48.16 236.451 48.64 238.238 49.6C240.025 50.5333 241.425 51.8267 242.438 53.48C243.451 55.1333 243.958 57.0533 243.958 59.24C243.958 61.3733 243.451 63.28 242.438 64.96C241.425 66.6133 240.025 67.92 238.238 68.88C236.451 69.84 234.425 70.32 232.158 70.32ZM232.158 65.2C233.198 65.2 234.131 64.96 234.958 64.48C235.785 64 236.438 63.32 236.918 62.44C237.398 61.5333 237.638 60.4667 237.638 59.24C237.638 57.9867 237.398 56.92 236.918 56.04C236.438 55.16 235.785 54.48 234.958 54C234.131 53.52 233.198 53.28 232.158 53.28C231.118 53.28 230.185 53.52 229.358 54C228.531 54.48 227.865 55.16 227.358 56.04C226.878 56.92 226.638 57.9867 226.638 59.24C226.638 60.4667 226.878 61.5333 227.358 62.44C227.865 63.32 228.531 64 229.358 64.48C230.185 64.96 231.118 65.2 232.158 65.2ZM248.25 70V48.48H254.45V61.28L264.93 48.48H270.65V70H264.45V57.2L254.01 70H248.25ZM259.05 46.16C256.703 46.16 254.943 45.6533 253.77 44.64C252.597 43.6 251.997 42.04 251.97 39.96H256.05C256.077 40.8667 256.33 41.5867 256.81 42.12C257.29 42.6533 258.023 42.92 259.01 42.92C259.97 42.92 260.703 42.6533 261.21 42.12C261.743 41.5867 262.01 40.8667 262.01 39.96H266.17C266.17 42.04 265.57 43.6 264.37 44.64C263.17 45.6533 261.397 46.16 259.05 46.16ZM296.328 42H302.808V70H296.328V42ZM283.608 70H277.128V42H283.608V70ZM296.808 58.52H283.128V53.04H296.808V58.52ZM319.864 70.32C317.41 70.32 315.25 69.84 313.384 68.88C311.544 67.92 310.117 66.6133 309.104 64.96C308.09 63.28 307.584 61.3733 307.584 59.24C307.584 57.08 308.077 55.1733 309.064 53.52C310.077 51.84 311.45 50.5333 313.184 49.6C314.917 48.64 316.877 48.16 319.064 48.16C321.17 48.16 323.064 48.6133 324.744 49.52C326.45 50.4 327.797 51.68 328.784 53.36C329.77 55.0133 330.264 57 330.264 59.32C330.264 59.56 330.25 59.84 330.224 60.16C330.197 60.4533 330.17 60.7333 330.144 61H312.664V57.36H326.864L324.464 58.44C324.464 57.32 324.237 56.3467 323.784 55.52C323.33 54.6933 322.704 54.0533 321.904 53.6C321.104 53.12 320.17 52.88 319.104 52.88C318.037 52.88 317.09 53.12 316.264 53.6C315.464 54.0533 314.837 54.7067 314.384 55.56C313.93 56.3867 313.704 57.3733 313.704 58.52V59.48C313.704 60.6533 313.957 61.6933 314.464 62.6C314.997 63.48 315.73 64.16 316.664 64.64C317.624 65.0933 318.744 65.32 320.024 65.32C321.17 65.32 322.17 65.1467 323.024 64.8C323.904 64.4533 324.704 63.9333 325.424 63.24L328.744 66.84C327.757 67.96 326.517 68.8267 325.024 69.44C323.53 70.0267 321.81 70.32 319.864 70.32ZM349.527 70.48C349.474 70.48 349.327 70.48 349.087 70.48C348.847 70.48 348.62 70.48 348.407 70.48C348.194 70.48 348.047 70.48 347.967 70.48C343.3 70.4 339.687 69.4 337.127 67.48C334.567 65.56 333.287 62.7867 333.287 59.16C333.287 55.5867 334.554 52.8667 337.087 51C339.647 49.1067 343.314 48.1467 348.087 48.12C348.14 48.12 348.274 48.12 348.487 48.12C348.727 48.12 348.954 48.12 349.167 48.12C349.38 48.12 349.514 48.12 349.567 48.12C354.394 48.12 358.127 49.0533 360.767 50.92C363.434 52.7867 364.767 55.5333 364.767 59.16C364.767 62.84 363.434 65.6533 360.767 67.6C358.127 69.52 354.38 70.48 349.527 70.48ZM349.327 65.68C351.54 65.68 353.34 65.4533 354.727 65C356.114 64.52 357.127 63.8 357.767 62.84C358.434 61.8533 358.767 60.6267 358.767 59.16C358.767 57.7467 358.447 56.5867 357.807 55.68C357.167 54.7467 356.14 54.0533 354.727 53.6C353.34 53.1467 351.54 52.92 349.327 52.92C349.247 52.92 349.087 52.92 348.847 52.92C348.607 52.92 348.447 52.92 348.367 52.92C346.234 52.92 344.5 53.16 343.167 53.64C341.834 54.12 340.86 54.8133 340.247 55.72C339.634 56.6267 339.327 57.7733 339.327 59.16C339.327 60.6 339.634 61.8 340.247 62.76C340.86 63.72 341.834 64.44 343.167 64.92C344.5 65.4 346.234 65.6533 348.367 65.68C348.447 65.68 348.607 65.68 348.847 65.68C349.087 65.68 349.247 65.68 349.327 65.68ZM346.167 77.76V40.32H351.887V77.76H346.167ZM372.811 70V52.16L374.211 53.6H365.531V48.48H386.291V53.6H377.611L379.011 52.16V70H372.811ZM399.239 70.32C396.785 70.32 394.625 69.84 392.759 68.88C390.919 67.92 389.492 66.6133 388.479 64.96C387.465 63.28 386.959 61.3733 386.959 59.24C386.959 57.08 387.452 55.1733 388.439 53.52C389.452 51.84 390.825 50.5333 392.559 49.6C394.292 48.64 396.252 48.16 398.439 48.16C400.545 48.16 402.439 48.6133 404.119 49.52C405.825 50.4 407.172 51.68 408.159 53.36C409.145 55.0133 409.639 57 409.639 59.32C409.639 59.56 409.625 59.84 409.599 60.16C409.572 60.4533 409.545 60.7333 409.519 61H392.039V57.36H406.239L403.839 58.44C403.839 57.32 403.612 56.3467 403.159 55.52C402.705 54.6933 402.079 54.0533 401.279 53.6C400.479 53.12 399.545 52.88 398.479 52.88C397.412 52.88 396.465 53.12 395.639 53.6C394.839 54.0533 394.212 54.7067 393.759 55.56C393.305 56.3867 393.079 57.3733 393.079 58.52V59.48C393.079 60.6533 393.332 61.6933 393.839 62.6C394.372 63.48 395.105 64.16 396.039 64.64C396.999 65.0933 398.119 65.32 399.399 65.32C400.545 65.32 401.545 65.1467 402.399 64.8C403.279 64.4533 404.079 63.9333 404.799 63.24L408.119 66.84C407.132 67.96 405.892 68.8267 404.399 69.44C402.905 70.0267 401.185 70.32 399.239 70.32ZM414.902 70V42H434.662L434.622 47.28H419.822L421.302 45.8L421.342 70H414.902ZM451.013 70V65.8L450.613 64.88V57.36C450.613 56.0267 450.199 54.9867 449.373 54.24C448.573 53.4933 447.333 53.12 445.653 53.12C444.506 53.12 443.373 53.3067 442.253 53.68C441.159 54.0267 440.226 54.5067 439.453 55.12L437.213 50.76C438.386 49.9333 439.799 49.2933 441.453 48.84C443.106 48.3867 444.786 48.16 446.493 48.16C449.773 48.16 452.319 48.9333 454.133 50.48C455.946 52.0267 456.853 54.44 456.853 57.72V70H451.013ZM444.453 70.32C442.773 70.32 441.333 70.04 440.133 69.48C438.933 68.8933 438.013 68.1067 437.373 67.12C436.733 66.1333 436.413 65.0267 436.413 63.8C436.413 62.52 436.719 61.4 437.333 60.44C437.973 59.48 438.973 58.7333 440.333 58.2C441.693 57.64 443.466 57.36 445.653 57.36H451.373V61H446.333C444.866 61 443.853 61.24 443.293 61.72C442.759 62.2 442.493 62.8 442.493 63.52C442.493 64.32 442.799 64.96 443.413 65.44C444.053 65.8933 444.919 66.12 446.013 66.12C447.053 66.12 447.986 65.88 448.813 65.4C449.639 64.8933 450.239 64.16 450.613 63.2L451.573 66.08C451.119 67.4667 450.293 68.52 449.093 69.24C447.893 69.96 446.346 70.32 444.453 70.32ZM469.358 70.4C467.705 70.4 466.051 70.2267 464.398 69.88C462.771 69.5333 461.265 69.0133 459.878 68.32L461.558 63.96C462.651 64.4933 463.838 64.9067 465.118 65.2C466.425 65.4667 467.745 65.6 469.078 65.6C470.038 65.6 470.865 65.5067 471.558 65.32C472.278 65.1067 472.825 64.8133 473.198 64.44C473.571 64.0667 473.758 63.6133 473.758 63.08C473.758 62.3867 473.465 61.8667 472.878 61.52C472.291 61.1467 471.438 60.96 470.318 60.96H465.918V57.08H469.798C470.518 57.08 471.131 57 471.638 56.84C472.145 56.68 472.518 56.4533 472.758 56.16C473.025 55.84 473.158 55.4667 473.158 55.04C473.158 54.5867 472.998 54.2 472.678 53.88C472.358 53.56 471.891 53.32 471.278 53.16C470.665 52.9733 469.891 52.88 468.958 52.88C467.891 52.88 466.785 53.0133 465.638 53.28C464.491 53.52 463.318 53.88 462.118 54.36L460.598 50.04C462.011 49.4533 463.411 48.9867 464.798 48.64C466.185 48.2933 467.558 48.1067 468.918 48.08C470.918 48.0267 472.718 48.24 474.318 48.72C475.918 49.2 477.171 49.8933 478.078 50.8C479.011 51.7067 479.478 52.8133 479.478 54.12C479.478 55.16 479.158 56.0933 478.518 56.92C477.905 57.7467 477.051 58.4 475.958 58.88C474.865 59.3333 473.638 59.56 472.278 59.56L472.438 58.32C474.811 58.32 476.678 58.8 478.038 59.76C479.398 60.6933 480.078 61.9733 480.078 63.6C480.078 64.9867 479.598 66.2 478.638 67.24C477.705 68.2533 476.425 69.04 474.798 69.6C473.198 70.1333 471.385 70.4 469.358 70.4Z" fill="white"/>
<g filter="url(#filter0_d_802_2)">
<path fill-rule="evenodd" clip-rule="evenodd" d="M70.1406 62.9278C69.4706 64.7944 68.6506 66.5944 67.6873 68.3043C66.374 70.6475 64.8008 72.8274 63.0042 74.8074C62.1109 75.794 61.1609 76.7306 60.1643 77.6106C57.0877 80.3305 53.5379 82.5337 49.6447 84.087C45.4649 85.7636 40.8884 86.6836 36.0986 86.6836C25.4057 86.6836 15.8027 82.0971 9.19297 74.804C6.08309 71.3742 3.63986 67.3543 2.05659 62.9245C0.726638 59.208 0 55.2115 0 51.0449C0 46.8784 0.726638 42.8819 2.05659 39.1654C3.63986 34.7389 6.08309 30.7157 9.19297 27.2859C15.8027 19.9928 25.4057 15.4063 36.0986 15.4063C40.8884 15.4063 45.4649 16.3263 49.6447 18.0029C53.5345 19.5562 57.0877 21.7594 60.1643 24.4793C61.1642 25.3593 62.1142 26.2959 63.0042 27.2825C64.7974 29.2624 66.374 31.4424 67.6873 33.7856C68.6506 35.4955 69.4706 37.2921 70.1406 39.1621H56.9444C55.7745 37.1688 54.3212 35.3622 52.6379 33.7856C49.7247 31.059 46.1215 29.0491 42.1083 28.0325H42.105C40.1817 27.5425 38.1718 27.2825 36.0952 27.2825C27.1889 27.2825 19.4092 32.059 15.2494 39.1621C13.2028 42.6553 12.0295 46.7151 12.0295 51.0416C12.0295 55.3681 13.2028 59.4246 15.2494 62.9212C19.4092 70.0209 27.1889 74.8007 36.0952 74.8007C38.1718 74.8007 40.1817 74.5407 42.105 74.0507H42.1083C46.1182 73.0341 49.7214 71.0208 52.6379 68.2976C54.3179 66.7243 55.7745 64.9144 56.9444 62.9212H70.1406V62.9278Z" fill="white"/>
<path d="M41.885 15.2296H29.8521V102.996H41.885V15.2296Z" fill="white"/>
<path d="M84.0001 33.3754H71.9672V86.8266H84.0001V33.3754Z" fill="white"/>
<path d="M41.9022 44.7826V56.6329H71.951V44.7826H41.9022Z" fill="white"/>
<path fill-rule="evenodd" clip-rule="evenodd" d="M83.9999 5V28.7557H76.7535C74.5236 25.3759 71.8337 22.2593 68.7572 19.4728C67.7672 18.5695 66.7339 17.7028 65.6573 16.8762H36.4284V16.7129H29.8487V5H83.9999Z" fill="white"/>
</g>
<defs>
<filter id="filter0_d_802_2" x="0" y="5" width="98.0001" height="112.996" filterUnits="userSpaceOnUse" color-interpolation-filters="sRGB">
<feFlood flood-opacity="0" result="BackgroundImageFix"/>
<feColorMatrix in="SourceAlpha" type="matrix" values="0 0 0 0 0 0 0 0 0 0 0 0 0 0 0 0 0 0 127 0" result="hardAlpha"/>
<feOffset dx="8" dy="9"/>
<feGaussianBlur stdDeviation="3"/>
<feComposite in2="hardAlpha" operator="out"/>
<feColorMatrix type="matrix" values="0 0 0 0 0 0 0 0 0 0 0 0 0 0 0 0 0 0 0.23 0"/>
<feBlend mode="normal" in2="BackgroundImageFix" result="effect1_dropShadow_802_2"/>
<feBlend mode="normal" in="SourceGraphic" in2="effect1_dropShadow_802_2" result="shape"/>
</filter>
</defs>
</svg>
