<svg width="743" height="867" viewBox="0 0 743 867" fill="none" xmlns="http://www.w3.org/2000/svg">
<path d="M319.301 94.046C361.41 94.0461 401.638 102.133 438.375 116.869L438.378 116.87C472.569 130.523 503.801 149.89 530.843 173.797L530.847 173.8C539.635 181.534 547.982 189.765 555.802 198.434L555.805 198.437C571.568 215.841 585.425 235 596.966 255.593L596.968 255.597C604.972 269.805 611.85 284.697 617.554 300.171H504.826C494.48 282.763 481.709 266.968 466.962 253.155L465.738 252.019C439.945 228.252 408.22 210.724 372.949 201.789L372.708 201.728H372.677C355.58 197.393 337.719 195.094 319.271 195.094C239.763 195.094 170.303 237.737 133.159 301.16C114.883 332.356 104.404 368.614 104.404 407.249C104.404 445.884 114.882 482.112 133.158 513.336L133.159 513.337C170.302 576.731 239.763 619.403 319.271 619.403C337.719 619.403 355.581 617.104 372.678 612.77H372.708L372.95 612.708C408.752 603.631 440.922 585.656 466.96 561.344L466.962 561.342C481.68 547.558 494.479 531.736 504.826 514.326H617.574C611.866 529.799 604.981 544.735 596.968 558.959L596.966 558.963C585.424 579.557 571.596 598.716 555.806 616.118L555.805 616.12C547.954 624.791 539.604 633.024 530.844 640.759H530.843C503.8 664.666 472.598 684.033 438.378 697.686L438.375 697.687C401.638 712.423 361.41 720.511 319.301 720.511C226.037 720.511 142.213 680.822 84.1621 617.588L82.7959 616.09C55.4606 585.942 33.9879 550.612 20.0742 511.683V511.682L19.5303 510.149C8.18844 477.922 2.00002 443.326 2 407.278C2 370.659 8.38639 335.537 20.0742 302.875V302.874C33.7707 264.582 54.7915 229.72 81.5186 199.884L82.7959 198.467C140.894 134.362 225.303 94.046 319.301 94.046Z" stroke="white" stroke-width="4"/>
<path d="M343.875 94.9971L368.482 97.3193V864.8H266.048V97.3193L290.626 94.9971L317.498 94.001L343.875 94.9971Z" stroke="white" stroke-width="4"/>
<path d="M741 252.988V721.777H638.567V252.988H741Z" stroke="white" stroke-width="4"/>
<path d="M368 353.887H638V454.706H368V353.887Z" stroke="white" stroke-width="4"/>
<path d="M741 2V208.125H679.975C660.273 178.431 636.576 151.041 609.516 126.532H609.515C600.719 118.507 591.538 110.807 581.972 103.462L581.469 103.075L580.835 103.05L368.658 94.5049L346.725 92.0127L346.654 92.0049L346.583 92.002L322.301 91.002L322.256 91H322.211C299.966 91.0866 287.228 92.0112 266.019 95.1777V2H741Z" stroke="white" stroke-width="4"/>
</svg>
