<svg width="1600" height="900" viewBox="0 0 1600 900" fill="none" xmlns="http://www.w3.org/2000/svg">
  <defs>
    <linearGradient id="bg" x1="0" y1="0" x2="1600" y2="900" gradientUnits="userSpaceOnUse">
      <stop stop-color="#2f3640"/>
      <stop offset="1" stop-color="#12161b"/>
    </linearGradient>
    <radialGradient id="glow" cx="0" cy="0" r="1" gradientUnits="userSpaceOnUse" gradientTransform="translate(1200 200) rotate(145) scale(900 520)">
      <stop stop-color="rgba(255,255,255,0.2)"/>
      <stop offset="1" stop-color="rgba(255,255,255,0)"/>
    </radialGradient>
  </defs>
  <rect width="1600" height="900" fill="url(#bg)"/>
  <rect width="1600" height="900" fill="url(#glow)"/>

  <g opacity="0.32" stroke="white" stroke-width="1">
    <line x1="0" y1="140" x2="1600" y2="140"/>
    <line x1="0" y1="260" x2="1600" y2="260"/>
    <line x1="0" y1="380" x2="1600" y2="380"/>
    <line x1="0" y1="500" x2="1600" y2="500"/>
    <line x1="0" y1="620" x2="1600" y2="620"/>
    <line x1="0" y1="740" x2="1600" y2="740"/>
  </g>

  <g opacity="0.42">
    <rect x="180" y="250" width="1240" height="430" stroke="rgba(255,255,255,0.25)"/>
    <rect x="220" y="300" width="320" height="320" stroke="rgba(255,255,255,0.24)"/>
    <rect x="580" y="300" width="420" height="320" stroke="rgba(255,255,255,0.24)"/>
    <rect x="1040" y="300" width="340" height="320" stroke="rgba(255,255,255,0.24)"/>
  </g>

  <rect x="180" y="190" width="600" height="5" fill="#AD1B25"/>
  <circle cx="150" cy="192" r="7" fill="#AD1B25"/>

  <text x="180" y="130" fill="rgba(255,255,255,0.78)" font-family="Bahnschrift, Segoe UI, Arial, sans-serif" font-size="22" letter-spacing="4">STROINEFTEGAZ / OBJECT VISUAL</text>
  <text x="180" y="765" fill="white" font-family="Bahnschrift, Segoe UI, Arial, sans-serif" font-size="56" font-weight="700" letter-spacing="1">Инженерно-технические средства охраны</text>
  <text x="180" y="818" fill="rgba(255,255,255,0.7)" font-family="Consolas, monospace" font-size="26" letter-spacing="2.8">ТСО / ИТСО</text>
</svg>
